<?xml version="1.0" encoding="UTF-8"?>
<svg width="52px" height="51px" viewBox="0 0 52 51" version="1.1" xmlns="http://www.w3.org/2000/svg" xmlns:xlink="http://www.w3.org/1999/xlink">
    <!-- Generator: Sketch 55.2 (78181) - https://sketchapp.com -->
    <title>Group 168</title>
    <desc>Created with Sketch.</desc>
    <g id="Page-1" stroke="none" stroke-width="1" fill="none" fill-rule="evenodd">
        <g id="Homepage" transform="translate(-169.000000, -5688.000000)">
            <g id="Group-168" transform="translate(170.000000, 5688.000000)">
                <g id="Group-3" transform="translate(0.000000, 0.376807)" fill="#000000" stroke="#000000" stroke-width="0.595238095">
                    <path d="M48.0647414,27.9890716 L45.0673276,27.9890716 C44.9431897,27.9890716 44.8362931,28.0770331 44.8130172,28.1983003 L44.7371552,28.5834518 C44.2207759,31.2180248 43.1759483,33.7236446 41.6630172,35.9508623 L41.4285345,36.297584 C41.3587069,36.4000634 41.3716379,36.5367025 41.460431,36.6238099 L43.5776724,38.7212204 C43.6785345,38.8219917 43.6785345,38.9842507 43.5776724,39.085876 L39.3897414,43.2345813 C39.2871552,43.3353526 39.1225,43.3353526 39.0216379,43.2345813 L36.9035345,41.1363168 C36.8147414,41.0483554 36.6768103,41.0355455 36.5742241,41.104719 L36.235431,41.3310275 C33.9862931,42.8349118 31.4526724,43.8733691 28.7880172,44.3823499 L28.4000862,44.4566474 C28.2776724,44.4805592 28.1888793,44.5864545 28.1888793,44.7102837 L28.1888793,47.6787686 C28.1888793,47.8205317 28.0733621,47.9358209 27.9293966,47.9358209 L22.0061207,47.9358209 C21.8621552,47.9358209 21.7466379,47.8205317 21.7466379,47.6787686 L21.7466379,44.7094298 C21.7466379,44.5864545 21.6578448,44.4805592 21.5362931,44.4566474 L21.1397414,44.3806419 C18.4742241,43.8682452 15.9397414,42.8280799 13.6888793,41.3233416 L13.360431,41.103865 C13.2578448,41.0346915 13.1190517,41.0483554 13.0311207,41.1354628 L10.9130172,43.2337273 C10.8121552,43.3344986 10.6475,43.3344986 10.5457759,43.2337273 L6.35698276,39.085022 C6.25612069,38.9842507 6.25612069,38.8211377 6.35698276,38.7203664 L8.47422414,36.6229559 C8.56301724,36.5358485 8.57594828,36.3992094 8.50612069,36.297584 L8.26043103,35.9346364 C6.75181034,33.7125427 5.71043103,31.2120468 5.1975,28.5825978 L5.1225,28.1983003 C5.09922414,28.0770331 4.99232759,27.9890716 4.86818966,27.9890716 L1.87077586,27.9890716 C1.72767241,27.9890716 1.61043103,27.8737824 1.61043103,27.7320193 L1.61043103,21.8642231 C1.61043103,21.7216061 1.72767241,21.6063168 1.87077586,21.6063168 L4.86818966,21.6063168 C4.99232759,21.6063168 5.09922414,21.5192094 5.1225,21.3979421 L5.19577586,21.0247466 C5.71474138,18.3782176 6.76560345,15.8614959 8.28543103,13.6248843 L8.50698276,13.2995124 C8.57594828,13.1970331 8.56387931,13.0603939 8.47508621,12.9732865 L6.35784483,10.875022 C6.25698276,10.7742507 6.25698276,10.6111377 6.35784483,10.5112204 L10.5466379,6.36166116 C10.6483621,6.26088981 10.8130172,6.26088981 10.9138793,6.36166116 L13.0319828,8.45992562 C13.1207759,8.54703306 13.2578448,8.56069697 13.3612931,8.49152342 L13.6966379,8.26777686 C15.9483621,6.76474656 18.4828448,5.72714325 21.1466379,5.21389256 L21.5362931,5.13874105 C21.6578448,5.1156832 21.7466379,5.00893388 21.7466379,4.88595868 L21.7466379,1.91747383 C21.7466379,1.77485675 21.8621552,1.65956749 22.0061207,1.65956749 L27.9293966,1.65956749 C28.0733621,1.65956749 28.1888793,1.77485675 28.1888793,1.91747383 L28.1888793,4.88595868 C28.1888793,5.00893388 28.2776724,5.1156832 28.3992241,5.13874105 L28.7768103,5.21133058 C31.4492241,5.72543526 33.9888793,6.76560055 36.2466379,8.27204683 L36.5750862,8.49152342 C36.6776724,8.56069697 36.8156034,8.54703306 36.9043966,8.45992562 L39.0225,6.36166116 C39.1233621,6.26088981 39.2880172,6.26088981 39.3897414,6.36166116 L43.5785345,10.5112204 C43.6793966,10.6111377 43.6793966,10.7742507 43.5785345,10.875022 L41.4612931,12.9732865 C41.3725,13.0603939 41.359569,13.1970331 41.4293966,13.2995124 L41.6509483,13.6248843 C43.1750862,15.8683278 44.2276724,18.3927355 44.7440517,21.0478044 L44.8130172,21.3970882 C44.8362931,21.5183554 44.9431897,21.6063168 45.0673276,21.6063168 L48.0647414,21.6063168 C48.2078448,21.6063168 48.3250862,21.7216061 48.3250862,21.8642231 L48.3250862,27.7320193 C48.3250862,27.8737824 48.2078448,27.9890716 48.0647414,27.9890716 M46.1250862,19.8146364 C45.5914655,17.5746088 44.7061207,15.4567025 43.485431,13.5002011 C43.4233621,13.3994298 43.4380172,13.2704766 43.5216379,13.1867851 L45.4293966,11.2968953 C45.7664655,10.9629835 45.7664655,10.423259 45.4293966,10.0893471 L39.8147414,4.52728099 C39.4776724,4.19336915 38.9319828,4.19336915 38.5957759,4.52728099 L36.6871552,6.4171708 C36.6026724,6.50086226 36.4733621,6.51452617 36.3716379,6.45303857 C34.3975,5.24378237 32.2587069,4.36758402 29.9983621,3.83896143 C29.8819828,3.81163361 29.8000862,3.71000826 29.8000862,3.59215702 L29.8000862,0.918300275 C29.8000862,0.446041322 29.4138793,0.0643057851 28.9380172,0.0643057851 L20.9975,0.0643057851 C20.5216379,0.0643057851 20.135431,0.446041322 20.135431,0.918300275 L20.135431,3.59215702 C20.135431,3.71000826 20.0535345,3.81163361 19.9371552,3.83896143 C17.6768103,4.36758402 15.5388793,5.24378237 13.5638793,6.45303857 C13.4612931,6.51452617 13.3319828,6.50086226 13.2475,6.4171708 L11.3388793,4.52728099 C11.0026724,4.19336915 10.4569828,4.19336915 10.1199138,4.52728099 L4.50525862,10.0893471 C4.16818966,10.423259 4.16818966,10.9629835 4.50525862,11.2968953 L6.41301724,13.1867851 C6.49663793,13.2704766 6.5112931,13.3994298 6.44922414,13.5002011 C5.22939655,15.4567025 4.34405172,17.5746088 3.81043103,19.8146364 C3.78284483,19.9290716 3.68112069,20.0102011 3.56215517,20.0102011 L0.862155172,20.0102011 C0.385431034,20.0102011 8.62068966e-05,20.3927906 8.62068966e-05,20.8641956 L8.62068966e-05,28.7311928 C8.62068966e-05,29.2025978 0.385431034,29.5851873 0.862155172,29.5851873 L3.56215517,29.5851873 C3.68112069,29.5851873 3.78284483,29.6663168 3.81043103,29.7807521 C4.34405172,32.0207796 5.22939655,34.138686 6.45008621,36.0960413 C6.51215517,36.1959587 6.4975,36.3249118 6.41387931,36.4086033 L4.50612069,38.2984931 C4.16905172,38.632405 4.16905172,39.1729835 4.50612069,39.5060413 L10.1207759,45.0689614 C10.4578448,45.4020193 11.0035345,45.4020193 11.3397414,45.0689614 L13.2483621,43.1773636 C13.3328448,43.0936722 13.4621552,43.0800083 13.5638793,43.1423499 C15.5397414,44.3516061 17.6776724,45.2278044 19.9380172,45.757281 C20.0543966,45.7837548 20.1362931,45.8853802 20.1362931,46.0032314 L20.1362931,48.6779421 C20.1362931,49.1493471 20.5225,49.5319366 20.9983621,49.5319366 L28.9388793,49.5319366 C29.4147414,49.5319366 29.8009483,49.1493471 29.8009483,48.6779421 L29.8009483,46.0032314 C29.8009483,45.8853802 29.8828448,45.7837548 29.9992241,45.757281 C32.259569,45.2278044 34.3975,44.3516061 36.3725,43.1423499 C36.4750862,43.0800083 36.6043966,43.0936722 36.6888793,43.1773636 L38.5975,45.0689614 C38.9337069,45.4020193 39.4793966,45.4020193 39.8164655,45.0689614 L45.4311207,39.5060413 C45.7673276,39.1729835 45.7673276,38.632405 45.4311207,38.2984931 L43.5233621,36.4077493 C43.4397414,36.3249118 43.4250862,36.1959587 43.4871552,36.0960413 C44.7069828,34.138686 45.5923276,32.0207796 46.1268103,29.7807521 C46.1543966,29.6663168 46.2561207,29.5851873 46.3750862,29.5851873 L49.0733621,29.5851873 C49.5500862,29.5851873 49.935431,29.2025978 49.935431,28.7311928 L49.935431,20.8641956 C49.935431,20.3927906 49.5500862,20.0102011 49.0733621,20.0102011 L46.3733621,20.0102011 C46.2543966,20.0102011 46.1526724,19.9290716 46.1250862,19.8146364" id="Fill-1"></path>
                </g>
                <path d="M16.2784483,11.7517576 C16.4612069,11.6356143 16.6482759,11.525449 16.8353448,11.4169917 C16.6482759,11.526303 16.4612069,11.6356143 16.2784483,11.7517576" id="Fill-4" fill="#59C82A"></path>
                <path d="M17.6911207,10.9515647 C17.9187069,10.8371295 18.1471552,10.7261102 18.3807759,10.6227769 C18.1471552,10.7269642 17.9187069,10.8371295 17.6911207,10.9515647" id="Fill-6" fill="#59C82A"></path>
                <path d="M15.3043966,12.4289752 C15.4199138,12.3435758 15.5328448,12.2564683 15.6492241,12.1736309 C15.5328448,12.2564683 15.4190517,12.3435758 15.3043966,12.4289752" id="Fill-8" fill="#59C82A"></path>
                <path d="M8.9887931,23.2414848 C9.00689655,23.0903278 9.0362069,22.9417328 9.05862069,22.7914298 C9.03448276,22.9408788 9.00862069,23.0903278 8.9887931,23.2414848" id="Fill-10" fill="#59C82A"></path>
                <path d="M18.9008621,10.3974077 C19.2732759,10.2479587 19.65,10.1087576 20.0344828,9.98663636 C19.65,10.1096116 19.2724138,10.2471047 18.9008621,10.3974077" id="Fill-12" fill="#59C82A"></path>
                <path d="M13.9700862,13.5381433 C14.0519828,13.4621377 14.1347414,13.3886942 14.2183621,13.3143967 C14.1347414,13.3886942 14.0519828,13.4621377 13.9700862,13.5381433" id="Fill-14" fill="#59C82A"></path>
                <path d="M8.85913793,25.1746722 C8.85913793,24.7229091 8.89017241,24.278832 8.92810345,23.8364628 C8.88758621,24.277978 8.85913793,24.7229091 8.85913793,25.1746722" id="Fill-16" fill="#59C82A"></path>
                <path d="M11.9975862,15.7402534 C12.057931,15.659124 12.1191379,15.5779945 12.1803448,15.497719 C12.1191379,15.5779945 12.057931,15.659124 11.9975862,15.7402534" id="Fill-18" fill="#59C82A"></path>
                <path d="M28.4375,9.59841047 C28.7926724,9.67612397 29.1435345,9.76579339 29.4900862,9.86656474 C29.1435345,9.76579339 28.7926724,9.67612397 28.4375,9.59841047" id="Fill-20" fill="#59C82A"></path>
                <path d="M26.7672414,9.32282645 C27.2258621,9.37321212 27.6801724,9.44067769 28.1258621,9.52778512 C27.6801724,9.43982369 27.225,9.37406612 26.7672414,9.32282645" id="Fill-22" fill="#59C82A"></path>
                <path d="M29.9006897,9.98663636 C30.2851724,10.1096116 30.6627586,10.2479587 31.0334483,10.3974077 C30.6627586,10.2471047 30.2851724,10.1096116 29.9006897,9.98663636" id="Fill-24" fill="#59C82A"></path>
                <path d="M20.4448276,9.86656474 C20.7913793,9.76579339 21.1431034,9.67612397 21.4982759,9.59841047 C21.1431034,9.67612397 20.7913793,9.76579339 20.4448276,9.86656474" id="Fill-26" fill="#59C82A"></path>
                <path d="M24.9681897,9.21727273 C25.4612931,9.21727273 25.9475,9.24716253 26.4293966,9.28986226 C25.9475,9.24716253 25.4612931,9.21727273 24.9681897,9.21727273" id="Fill-28" fill="#59C82A"></path>
                <path d="M24.9673276,9.21727273 C24.4742241,9.21727273 23.9880172,9.24716253 23.5061207,9.28986226 C23.9880172,9.24716253 24.4742241,9.21727273 24.9673276,9.21727273" id="Fill-30" fill="#59C82A"></path>
                <path d="M31.5557759,10.6229477 C31.7885345,10.726281 32.0169828,10.8373003 32.2437069,10.9508815 C32.0169828,10.8364463 31.7885345,10.727135 31.5557759,10.6229477" id="Fill-32" fill="#59C82A"></path>
                <path d="M30.9538793,39.9807163 C30.7237069,40.0720937 30.4892241,40.1540771 30.2538793,40.2343526 C30.4892241,40.1540771 30.7228448,40.0720937 30.9538793,39.9807163" id="Fill-34" fill="#59C82A"></path>
                <path d="M29.5201724,40.4752645 C29.2718966,40.547 29.0184483,40.6067796 28.7658621,40.6674132 C29.0184483,40.6067796 29.2710345,40.547854 29.5201724,40.4752645" id="Fill-36" fill="#59C82A"></path>
                <path d="M28.0435345,40.8334298 C27.7461207,40.8906474 27.4435345,40.9290771 27.1400862,40.9700689 C27.4435345,40.9290771 27.7452586,40.8906474 28.0435345,40.8334298" id="Fill-38" fill="#59C82A"></path>
                <path d="M12.1802586,34.8517107 C12.1190517,34.7714353 12.0578448,34.6903058 11.9975,34.6091763 C12.0578448,34.6903058 12.1190517,34.7714353 12.1802586,34.8517107" id="Fill-40" fill="#59C82A"></path>
                <path d="M26.5273276,41.0540165 C26.0135345,41.1026942 25.494569,41.13173 24.9678448,41.13173 C25.4919828,41.13173 26.0109483,41.1035482 26.5273276,41.0540165" id="Fill-42" fill="#59C82A"></path>
                <path d="M34.8878448,37.729416 C34.6818103,37.8891129 34.4731897,38.0462479 34.2593966,38.195697 C34.4723276,38.0462479 34.6818103,37.8899669 34.8878448,37.729416" id="Fill-44" fill="#59C82A"></path>
                <path d="M32.3362069,39.3535427 C32.1137931,39.467124 31.887069,39.5738733 31.6586207,39.6772066 C31.887069,39.5738733 32.112931,39.467978 32.3362069,39.3535427" id="Fill-46" fill="#59C82A"></path>
                <path d="M33.6528448,38.6000634 C33.4364655,38.7375565 33.2157759,38.8699256 32.9916379,38.9971708 C33.2157759,38.8699256 33.4356034,38.7384105 33.6528448,38.6000634" id="Fill-48" fill="#59C82A"></path>
                <path d="M24.9673276,41.1319862 L24.9673276,41.1319862 C24.4742241,41.1319862 23.9880172,41.1020964 23.5061207,41.0593967 C23.9880172,41.1020964 24.4742241,41.1319862 24.9673276,41.1319862" id="Fill-50" fill="#59C82A"></path>
                <path d="M15.6487931,38.1751157 C15.5324138,38.0931322 15.4203448,38.0068788 15.3074138,37.9223333 C15.4203448,38.0068788 15.5324138,38.0931322 15.6487931,38.1751157" id="Fill-52" fill="#59C82A"></path>
                <path d="M16.8315517,38.93073 C16.6453448,38.8222727 16.46,38.7138154 16.2789655,38.5976722 C16.46,38.7138154 16.6462069,38.8222727 16.8315517,38.93073" id="Fill-54" fill="#59C82A"></path>
                <path d="M14.2167241,37.0338375 C14.1339655,36.9603939 14.052069,36.8869504 13.9701724,36.8117989 C14.052069,36.8869504 14.1339655,36.9603939 14.2167241,37.0338375" id="Fill-56" fill="#59C82A"></path>
                <path d="M18.3806034,39.7263113 C18.1469828,39.622978 17.9193966,39.5128127 17.6918103,39.3983774 C17.9185345,39.5128127 18.1469828,39.622124 18.3806034,39.7263113" id="Fill-58" fill="#59C82A"></path>
                <path d="M21.4980172,40.7508485 C21.1428448,40.673135 20.7919828,40.5834656 20.444569,40.4826942 C20.7919828,40.5834656 21.1428448,40.673135 21.4980172,40.7508485" id="Fill-60" fill="#59C82A"></path>
                <path d="M23.1682759,41.0265179 C22.7096552,40.9761322 22.2553448,40.9086667 21.8096552,40.8207052 C22.2553448,40.9095207 22.7096552,40.9752782 23.1682759,41.0265179" id="Fill-62" fill="#59C82A"></path>
                <path d="M20.0348276,40.362708 C19.6503448,40.2397328 19.2727586,40.1013857 18.9012069,39.9519366 C19.2718966,40.1022397 19.6503448,40.2397328 20.0348276,40.362708" id="Fill-64" fill="#59C82A"></path>
                <path d="M37.8925,34.6691267 C37.7976724,34.7963719 37.704569,34.9253251 37.605431,35.0491543 C37.7037069,34.9236171 37.7993966,34.7972259 37.8925,34.6691267" id="Fill-66" fill="#59C82A"></path>
                <path d="M41.0756034,25.1746722 C41.0756034,25.6375372 41.045431,26.0935702 41.0057759,26.5461873 C41.0471552,26.0918623 41.0756034,25.6349752 41.0756034,25.1746722" id="Fill-68" fill="#59C82A"></path>
                <path d="M37.7543966,15.4975482 C37.8164655,15.5778237 37.8776724,15.6589532 37.9380172,15.7400826 C37.8776724,15.6589532 37.8164655,15.5778237 37.7543966,15.4975482" id="Fill-70" fill="#59C82A"></path>
                <path d="M39.3472414,32.3556556 C39.3817241,32.2881901 39.405,32.2164545 39.4386207,32.148989 C39.405,32.2173085 39.3731034,32.2873361 39.3386207,32.3556556 L39.3472414,32.3556556 Z" id="Fill-72" fill="#59C82A"></path>
                <path d="M40.5536207,29.164022 C40.5717241,29.0982645 40.582931,29.0325069 40.5993103,28.9667493 C40.582931,29.0325069 40.5656897,29.0982645 40.5475862,29.164022 L40.5536207,29.164022 Z" id="Fill-74" fill="#59C82A"></path>
                <path d="M40.9560345,27.0419311 C40.9206897,27.3476612 40.8698276,27.6491212 40.8163793,27.9488733 C40.8706897,27.6482672 40.9189655,27.3459532 40.9560345,27.0419311" id="Fill-76" fill="#59C82A"></path>
                <path d="M40.0543966,30.7597961 L40.0414655,30.7597961 C40.0190517,30.8195758 39.9983621,30.8802094 39.9750862,30.939135 C39.9992241,30.8785014 40.0319828,30.8212837 40.0543966,30.7597961" id="Fill-78" fill="#59C82A"></path>
                <path d="M35.7171552,13.3142259 C35.8007759,13.3885234 35.8835345,13.4619669 35.965431,13.5379725 C35.8835345,13.4619669 35.8007759,13.3885234 35.7171552,13.3142259" id="Fill-80" fill="#59C82A"></path>
                <path d="M33.1006034,11.4169063 C33.2876724,11.5253636 33.4747414,11.6355289 33.6566379,11.7516722 C33.4747414,11.6355289 33.2876724,11.5262176 33.1006034,11.4169063" id="Fill-82" fill="#59C82A"></path>
                <path d="M34.2859483,12.1738017 C34.4031897,12.2566391 34.5161207,12.3437466 34.6307759,12.429146 C34.5161207,12.3437466 34.4031897,12.2566391 34.2859483,12.1738017" id="Fill-84" fill="#59C82A"></path>
                <path d="M28.1260345,9.52795592 C28.2303448,9.54845179 28.3337931,9.57577961 28.4372414,9.59883747 C28.332931,9.57577961 28.2312069,9.54845179 28.1260345,9.52795592" id="Fill-88" fill="#59C82A"></path>
                <path d="M9.0612069,27.5681625 L17.7189655,27.5681625 L17.7189655,29.1642782 L14.8051724,29.1642782 L13.1939655,32.3556556 L10.6025862,32.3556556 C9.84482759,30.8765372 9.32155172,29.2659036 9.0612069,27.5681625 L9.0612069,27.5681625 Z M13.3844828,22.7815234 L11.7732759,19.589292 L9.89827586,19.589292 C10.1051724,19.0427355 10.337931,18.509843 10.6025862,17.9940303 L13.1939655,17.9940303 L14.8051724,21.1854077 L17.7189655,21.1854077 L17.7189655,22.7815234 L13.3844828,22.7815234 Z M19.3301724,30.7595399 L30.6051724,30.7595399 L30.6051724,19.589292 L19.3301724,19.589292 L19.3301724,30.7595399 Z M32.2163793,21.1854077 L35.1301724,21.1854077 L36.7405172,17.9940303 L39.3327586,17.9940303 C40.0896552,19.4731488 40.6155172,21.0829284 40.8741379,22.7815234 L32.2163793,22.7815234 L32.2163793,21.1854077 Z M14.1896552,33.9509174 L15.8,30.7595399 L17.7189655,30.7595399 L17.7189655,31.5016612 C17.7189655,31.9730661 18.1051724,32.3556556 18.5810345,32.3556556 L31.3543103,32.3556556 C31.8301724,32.3556556 32.2163793,31.9730661 32.2163793,31.5016612 L32.2163793,30.7595399 L34.1353448,30.7595399 L35.7456897,33.9509174 L38.4025862,33.9509174 C38.2405172,34.1951598 38.0663793,34.4325702 37.8922414,34.6691267 C38.437931,33.9415234 38.9232759,33.1703664 39.3387931,32.3556556 L36.7405172,32.3556556 L35.1301724,29.1642782 L32.2163793,29.1642782 L32.2163793,27.5681625 L36.5517241,27.5681625 L38.162069,30.7595399 L40.0422414,30.7595399 C40.237931,30.2394573 40.4060345,29.7074187 40.5474138,29.1642782 L39.1577586,29.1642782 L37.5465517,25.9720468 L32.2163793,25.9720468 L32.2163793,24.3767851 L41.0353448,24.3767851 C41.0482759,24.6423774 41.0758621,24.9045537 41.0758621,25.174416 C41.0758621,21.6397328 39.9017241,18.3851598 37.937931,15.7403388 C38.0991379,15.9563994 38.2568966,16.174168 38.4068966,16.3979146 L35.7456897,16.3979146 L34.1353448,19.589292 L32.2163793,19.589292 L32.2163793,18.8480248 C32.2163793,18.3757658 31.8301724,17.9940303 31.3543103,17.9940303 L18.5810345,17.9940303 C18.1051724,17.9940303 17.7189655,18.3757658 17.7189655,18.8480248 L17.7189655,19.589292 L15.8,19.589292 L14.1896552,16.3979146 L11.5284483,16.3979146 C11.6784483,16.174168 11.837069,15.9563994 11.9974138,15.7403388 C10.4844828,17.7771157 9.45431034,20.1785482 9.05862069,22.7917713 C9.14568966,22.2477769 9.25258621,21.7106143 9.38965517,21.1854077 L10.7775862,21.1854077 L12.3887931,24.3767851 L17.7189655,24.3767851 L17.7189655,25.9720468 L8.9,25.9720468 C8.88706897,25.7064545 8.85948276,25.4442782 8.85948276,25.174416 C8.85948276,28.7090992 10.0336207,31.9645262 11.9974138,34.6093471 C11.837069,34.3932865 11.6784483,34.1755179 11.5284483,33.9509174 L14.1896552,33.9509174 Z" id="Fill-90" stroke="#59C82A" stroke-width="0.5" fill="#59C82A"></path>
                <path d="M21.8094828,40.8209614 C21.7051724,40.8004656 21.6025862,40.7739917 21.4982759,40.7509339 C21.6025862,40.7731377 21.7043103,40.8004656 21.8094828,40.8209614" id="Fill-92" fill="#59C82A"></path>
                <path d="M28.7658621,40.6670716 C28.5262069,40.7251433 28.2865517,40.7866309 28.0434483,40.8336006 C28.2874138,40.7866309 28.5262069,40.7242893 28.7658621,40.6670716" id="Fill-94" fill="#59C82A"></path>
                <path d="M32.2436207,10.9511377 C32.535,11.0980248 32.8203448,11.2534518 33.1005172,11.4165647 C32.8194828,11.2534518 32.535,11.0980248 32.2436207,10.9511377" id="Fill-96" fill="#59C82A"></path>
                <path d="M12.1802586,34.8517107 C12.7233621,35.5536942 13.3199138,36.208708 13.9699138,36.8116281 C13.3207759,36.208708 12.7225,35.5528402 12.1802586,34.8517107" id="Fill-98" fill="#59C82A"></path>
                <path d="M23.5058621,41.0590551 C23.392931,41.0488072 23.28,41.0394132 23.167931,41.0266033 C23.28,41.0394132 23.392931,41.0488072 23.5058621,41.0590551" id="Fill-100" fill="#59C82A"></path>
                <path d="M24.9673276,41.1319862 L24.9681897,41.1319862 L24.9673276,41.1319862 Z" id="Fill-102" fill="#59C82A"></path>
                <path d="M26.4296552,9.29028926 C26.5425862,9.30053719 26.6555172,9.30993113 26.7675862,9.32274105 C26.6546552,9.30993113 26.5425862,9.30053719 26.4296552,9.29028926" id="Fill-104" fill="#59C82A"></path>
                <path d="M27.1401724,40.9702397 C26.9367241,40.9975675 26.7332759,41.0342893 26.5272414,41.0539311 C26.7341379,41.0342893 26.9358621,40.9975675 27.1401724,40.9702397" id="Fill-106" fill="#59C82A"></path>
                <path d="M34.2589655,38.1959532 C34.0598276,38.3351543 33.8572414,38.4700854 33.652931,38.5998926 C33.8581034,38.4692314 34.0606897,38.3351543 34.2589655,38.1959532" id="Fill-108" fill="#59C82A"></path>
                <path d="M31.0337931,10.3974077 C31.2096552,10.4682893 31.382931,10.5460028 31.5553448,10.6228623 C31.382069,10.5460028 31.2096552,10.4682893 31.0337931,10.3974077" id="Fill-110" fill="#59C82A"></path>
                <path d="M29.4898276,9.86656474 C29.6268966,9.90584848 29.7648276,9.94342424 29.9010345,9.98697796 C29.7648276,9.94342424 29.6268966,9.90584848 29.4898276,9.86656474" id="Fill-112" fill="#59C82A"></path>
                <path d="M35.4518966,37.2740661 C35.2674138,37.4312011 35.0786207,37.5815041 34.8881034,37.7292452 C35.0786207,37.5806501 35.2674138,37.4312011 35.4518966,37.2740661" id="Fill-114" fill="#59C82A"></path>
                <path d="M33.6562069,11.7517576 C33.87,11.8875427 34.0794828,12.0275978 34.2855172,12.1736309 C34.0794828,12.0284518 33.87,11.8875427 33.6562069,11.7517576" id="Fill-116" fill="#59C82A"></path>
                <path d="M31.6584483,39.6775482 C31.4248276,39.7834435 31.1912069,39.8867769 30.9541379,39.9807163 C31.192069,39.8859229 31.4248276,39.7834435 31.6584483,39.6775482" id="Fill-118" fill="#59C82A"></path>
                <path d="M30.2542241,40.2346942 C30.0111207,40.3183857 29.7680172,40.4029311 29.5197414,40.4755207 C29.7688793,40.4029311 30.0111207,40.3183857 30.2542241,40.2346942" id="Fill-120" fill="#59C82A"></path>
                <path d="M32.9919828,38.997427 C32.7756034,39.1212562 32.5575,39.2408154 32.3359483,39.3535427 C32.5583621,39.2399614 32.7764655,39.1212562 32.9919828,38.997427" id="Fill-122" fill="#59C82A"></path>
                <path d="M37.192931,35.5485702 C37.3343103,35.3854573 37.4705172,35.2180744 37.6058621,35.0498375 C37.4731034,35.2189284 37.3334483,35.3837493 37.192931,35.5485702" id="Fill-124" fill="#59C82A"></path>
                <path d="M15.3069828,37.9219917 C14.9302586,37.6410275 14.5664655,37.3455455 14.2164655,37.0338375 C14.5673276,37.3455455 14.9302586,37.6410275 15.3069828,37.9219917" id="Fill-126" fill="#59C82A"></path>
                <path d="M8.92818966,23.8361212 C8.9462931,23.6371405 8.96353448,23.4381598 8.98853448,23.241741 C8.96525862,23.4390138 8.94456897,23.6371405 8.92818966,23.8361212" id="Fill-128" fill="#59C82A"></path>
                <path d="M41.0056897,26.5465289 C40.9901724,26.7122039 40.9763793,26.8778788 40.9556897,27.0418457 C40.9755172,26.8778788 40.9910345,26.7122039 41.0056897,26.5465289" id="Fill-130" fill="#59C82A"></path>
                <path d="M39.9752586,30.939562 C39.8140517,31.3494793 39.6338793,31.7525647 39.4390517,32.1496722 C39.6338793,31.7542727 39.8140517,31.3520413 39.9752586,30.939562" id="Fill-132" fill="#59C82A"></path>
                <path d="M20.0348276,9.98663636 C20.1701724,9.94308264 20.3081034,9.90636088 20.4451724,9.86622314 C20.3081034,9.90636088 20.1701724,9.94308264 20.0348276,9.98663636" id="Fill-134" fill="#59C82A"></path>
                <path d="M14.2184483,13.3142259 C14.5667241,13.0033719 14.9296552,12.7095978 15.3046552,12.4286336 C14.9287931,12.7095978 14.5667241,13.0033719 14.2184483,13.3142259" id="Fill-136" fill="#59C82A"></path>
                <path d="M16.8349138,11.4169063 C17.1150862,11.2537934 17.400431,11.0983664 17.6909483,10.9514793 C17.399569,11.0975124 17.1150862,11.2537934 16.8349138,11.4169063" id="Fill-138" fill="#59C82A"></path>
                <path d="M18.3806034,10.6226061 C18.5530172,10.5457466 18.725431,10.4688871 18.9012931,10.3971515 C18.724569,10.4688871 18.5530172,10.5457466 18.3806034,10.6226061" id="Fill-140" fill="#59C82A"></path>
                <path d="M15.649569,12.1738017 C15.8556034,12.0277686 16.0650862,11.8877135 16.2780172,11.7519284 C16.0650862,11.8877135 15.8556034,12.0286226 15.649569,12.1738017" id="Fill-142" fill="#59C82A"></path>
                <path d="M37.7543966,15.4975482 C37.2130172,14.7955647 36.6156034,14.141405 35.9656034,13.5384848 C36.6147414,14.141405 37.2130172,14.7964187 37.7543966,15.4975482" id="Fill-144" fill="#59C82A"></path>
                <path d="M21.4980172,9.59841047 C21.6023276,9.57535262 21.7049138,9.54887879 21.8092241,9.52752893 C21.7040517,9.54887879 21.6023276,9.57535262 21.4980172,9.59841047" id="Fill-146" fill="#59C82A"></path>
                <path d="M17.6919828,39.3982066 C17.3997414,39.2504656 17.1135345,39.0950386 16.8316379,38.9310716 C17.1135345,39.0950386 17.3997414,39.2513196 17.6919828,39.3982066" id="Fill-148" fill="#59C82A"></path>
                <polygon id="Fill-150" fill="#59C82A" points="24.9673276 9.21727273 24.9673276 9.21727273 24.9681897 9.21727273"></polygon>
                <path d="M40.8162931,27.9493003 C40.7550862,28.2908981 40.6826724,28.6299339 40.5990517,28.9664077 C40.6818103,28.6307879 40.7559483,28.2926061 40.8162931,27.9493003" id="Fill-152" fill="#59C82A"></path>
                <path d="M20.4448276,40.4827796 C20.3086207,40.4426419 20.1706897,40.4059201 20.0344828,40.3623664 C20.1706897,40.4059201 20.3086207,40.4434959 20.4448276,40.4827796" id="Fill-154" fill="#59C82A"></path>
                <path d="M34.6311207,12.4289752 C35.0061207,12.7090854 35.3681897,13.0037135 35.7173276,13.3145675 C35.3681897,13.0037135 35.0069828,12.7090854 34.6311207,12.4289752" id="Fill-156" fill="#59C82A"></path>
                <path d="M18.9008621,39.9519366 C18.7258621,39.8810551 18.5534483,39.8033416 18.3801724,39.7264821 C18.5534483,39.8033416 18.725,39.8810551 18.9008621,39.9519366" id="Fill-158" fill="#59C82A"></path>
                <path d="M13.9700862,13.5381433 C13.3200862,14.1410634 12.7226724,14.7960771 12.180431,15.4972066 C12.7226724,14.7969311 13.3209483,14.1410634 13.9700862,13.5381433" id="Fill-160" fill="#59C82A"></path>
                <path d="M16.2793103,38.5980138 C16.0655172,38.4613747 15.8551724,38.3213196 15.6491379,38.1752865 C15.8560345,38.3213196 16.0655172,38.4622287 16.2793103,38.5980138" id="Fill-162" fill="#59C82A"></path>
                <path d="M23.1682759,9.32282645 C23.2803448,9.31001653 23.3932759,9.30062259 23.5062069,9.29037466 C23.3932759,9.30062259 23.2803448,9.31001653 23.1682759,9.32282645" id="Fill-164" fill="#59C82A"></path>
                <polygon id="Fill-166" stroke="#59C82A" stroke-width="0.595238095" fill="#59C82A" points="20.9405172 22.7813526 22.5508621 22.7813526 22.5508621 21.1852369 20.9405172 21.1852369"></polygon>
                <path d="M42.0975862,20.6478182 C40.2656897,13.6886171 34.1415517,8.49633058 26.9225862,7.72602755 C15.6277586,6.52104132 6.14672414,15.9072948 7.35189655,27.0954766 C8.12344828,34.2468264 13.3587931,40.3187273 20.382931,42.1402975 C26.3027586,43.6740716 32.3993103,42.1437135 36.7803448,38.2571846 L35.7062069,37.0684242 C35.6243103,37.1410138 35.5355172,37.2033554 35.4518966,37.2742369 C35.2674138,37.4305179 35.0786207,37.5808209 34.8881034,37.729416 C34.6812069,37.8899669 34.4717241,38.0462479 34.2587931,38.195697 C34.0605172,38.3348981 33.857931,38.4698292 33.6527586,38.5996364 C33.4355172,38.7379835 33.2156897,38.8703526 32.9915517,38.9975978 C32.7760345,39.120573 32.5587931,39.2401322 32.3363793,39.3537135 C32.1131034,39.4681488 31.8863793,39.5740441 31.6587931,39.6773774 C31.4251724,39.7832727 31.1924138,39.8857521 30.9536207,39.9805455 C30.7234483,40.0727769 30.4889655,40.1539063 30.2544828,40.2350358 C30.0105172,40.3187273 29.7682759,40.4024187 29.52,40.4750083 C29.2708621,40.5475978 29.0182759,40.6065234 28.7656897,40.667157 C28.5260345,40.7243747 28.2872414,40.7867163 28.0432759,40.833686 C27.7458621,40.8909036 27.4432759,40.9293333 27.1398276,40.9703251 C26.9355172,40.9976529 26.7346552,41.0343747 26.5268966,41.0540165 C26.0113793,41.1035482 25.4915517,41.13173 24.9682759,41.13173 L24.9674138,41.13173 C24.4743103,41.13173 23.9881034,41.1018402 23.5062069,41.0591405 C23.3932759,41.0488926 23.2803448,41.0386446 23.1682759,41.0266887 C22.7096552,40.975449 22.2553448,40.9096915 21.8096552,40.820876 C21.7044828,40.8003802 21.6027586,40.7730523 21.4975862,40.7508485 C21.1424138,40.673135 20.7915517,40.5834656 20.445,40.4826942 C20.3087931,40.4434105 20.17,40.4058347 20.0346552,40.362281 C19.6501724,40.2393058 19.2717241,40.1018127 18.9010345,39.9515096 C18.7251724,39.8806281 18.5527586,39.8037686 18.3803448,39.7260551 C18.1475862,39.6227218 17.9182759,39.5125565 17.6915517,39.3981212 C17.4001724,39.2512342 17.1139655,39.0949532 16.8312069,38.9309862 C16.6467241,38.8225289 16.4605172,38.7132176 16.2794828,38.5979284 C16.0656897,38.4621433 15.8562069,38.3212342 15.6484483,38.1752011 C15.532931,38.0932176 15.4208621,38.0069642 15.307069,37.9224187 C14.9294828,37.6414545 14.5665517,37.3451185 14.2165517,37.0334105 C14.1337931,36.9599669 14.0518966,36.8873774 13.97,36.8122259 C13.32,36.2084518 12.7234483,35.554292 12.1803448,34.8514545 C12.1191379,34.7720331 12.057931,34.6900496 11.9975862,34.6089201 C10.0337931,31.9640992 8.8587931,28.7095262 8.8587931,25.174843 C8.8587931,24.7222259 8.88810345,24.2772948 8.92775862,23.8357796 C8.94413793,23.6367989 8.96482759,23.4386722 8.98896552,23.2413994 C9.0087931,23.0902424 9.0337931,22.9416474 9.0587931,22.7913444 C9.45448276,20.1781212 10.4846552,17.7775427 11.9975862,15.7399118 C12.057931,15.6587824 12.1191379,15.5776529 12.1803448,15.4973774 C12.7225862,14.7953939 13.32,14.1412342 13.97,13.538314 C14.0518966,13.4623085 14.1346552,13.388865 14.2182759,13.3145675 C14.5665517,13.0037135 14.9286207,12.7090854 15.3044828,12.4289752 C15.4191379,12.3435758 15.532931,12.2564683 15.6493103,12.1736309 C15.8562069,12.0284518 16.0656897,11.8875427 16.2786207,11.7517576 C16.4613793,11.6356143 16.6484483,11.526303 16.8346552,11.4169917 C17.1156897,11.2538788 17.4001724,11.0975978 17.6906897,10.9515647 C17.9182759,10.8371295 18.1475862,10.7269642 18.3803448,10.6227769 C18.5527586,10.5459174 18.7251724,10.4690579 18.9010345,10.3973223 C19.2717241,10.2470193 19.6501724,10.1095262 20.0346552,9.98655096 C20.17,9.94299725 20.3087931,9.90627548 20.445,9.86613774 C20.7915517,9.76536639 21.1424138,9.67569697 21.4975862,9.59883747 C21.6027586,9.57577961 21.7044828,9.54845179 21.8096552,9.52795592 C22.2553448,9.4391405 22.7096552,9.37338292 23.1682759,9.32299725 C23.2803448,9.31018733 23.3932759,9.30079339 23.5062069,9.29054545 C23.9881034,9.24699174 24.4743103,9.21710193 24.9674138,9.21710193 L24.9682759,9.21710193 C25.4613793,9.21710193 25.9475862,9.24699174 26.4294828,9.29054545 C26.5424138,9.30079339 26.6544828,9.31018733 26.7674138,9.32299725 C27.2251724,9.37338292 27.6794828,9.4391405 28.1260345,9.52795592 C28.2312069,9.54845179 28.332931,9.57577961 28.4372414,9.59883747 C28.7924138,9.67655096 29.1441379,9.76536639 29.4898276,9.86613774 C29.6268966,9.90627548 29.7648276,9.94299725 29.9010345,9.98655096 C30.2855172,10.1095262 30.6622414,10.2470193 31.0337931,10.3973223 C31.2096552,10.4682039 31.382069,10.5459174 31.5553448,10.6227769 C31.7881034,10.7269642 32.0174138,10.8371295 32.2432759,10.9515647 C32.5346552,11.0975978 32.8191379,11.2538788 33.1001724,11.4169917 C33.2872414,11.526303 33.4743103,11.6356143 33.6562069,11.7517576 C33.87,11.8875427 34.0794828,12.0284518 34.2855172,12.1736309 C34.4027586,12.2564683 34.5156897,12.3435758 34.6312069,12.4289752 C35.0062069,12.7090854 35.3682759,13.0037135 35.7174138,13.3145675 C35.8001724,13.388865 35.8837931,13.4623085 35.9656897,13.538314 C36.6156897,14.1412342 37.2131034,14.7953939 37.7544828,15.4973774 C37.8165517,15.5776529 37.8768966,15.6587824 37.9381034,15.7399118 C39.9018966,18.3847328 41.0751724,21.6401598 41.0751724,25.174843 C41.0751724,25.635146 41.0467241,26.0920331 41.0053448,26.5463581 C40.9915517,26.7128871 40.9751724,26.877708 40.9562069,27.0416749 C40.9191379,27.346551 40.8708621,27.648865 40.8165517,27.9494711 C40.7553448,28.2927769 40.6812069,28.6309587 40.5993103,28.9665785 C40.582931,29.0323361 40.5708621,29.0989477 40.5536207,29.1638512 L40.5475862,29.1638512 C40.4062069,29.7078457 40.2381034,30.2398843 40.0415517,30.7599669 L40.0544828,30.7599669 C40.032069,30.8214545 39.9984483,30.8778182 39.9751724,30.9393058 C39.8139655,31.3517851 39.6337931,31.7540165 39.4389655,32.149416 C39.4053448,32.2168815 39.382069,32.2886171 39.3475862,32.3552287 L39.3389655,32.3552287 C38.9225862,33.1707934 38.4381034,33.9419504 37.8924138,34.6686997 C37.7993103,34.7967989 37.7036207,34.9240441 37.6053448,35.0495813 C37.4708621,35.2186722 37.3346552,35.3852011 37.1932759,35.548314 C37.1182759,35.6354215 37.0510345,35.7276529 36.9743103,35.8121983 L38.1734483,36.8771295 C42.0915517,32.5413994 43.6406897,26.5104904 42.0975862,20.6478182" id="Fill-86" stroke="#000000" stroke-width="0.595238095" fill="#000000"></path>
            </g>
        </g>
    </g>
</svg>