<?xml version="1.0" encoding="UTF-8"?>
<svg width="48px" height="54px" viewBox="0 0 48 54" version="1.1" xmlns="http://www.w3.org/2000/svg" xmlns:xlink="http://www.w3.org/1999/xlink">
    <!-- Generator: Sketch 55.2 (78181) - https://sketchapp.com -->
    <title>Group 13 Copy</title>
    <desc>Created with Sketch.</desc>
    <g id="Page-1" stroke="none" stroke-width="1" fill="none" fill-rule="evenodd">
        <g id="Homepage" transform="translate(-170.000000, -5429.000000)">
            <g id="Group-13-Copy" transform="translate(170.000000, 5429.000000)">
                <g id="Group-3" transform="translate(16.416667, 13.316587)" fill="#59C82A">
                    <path d="M10.0523583,19.5981054 L8.666775,19.5981054 L8.666775,11.9766623 L9.75010833,11.9766623 L9.75010833,9.79910713 L5.416775,9.79910713 L5.416775,11.9766623 L6.50010833,11.9766623 L6.50010833,19.5981054 L5.11344167,19.5981054 L2.26210833,10.9978513 L7.13710833,2.17766405 L8.02869167,2.17766405 L12.9036917,10.9978513 L10.0523583,19.5981054 Z M4.33344167,38.1073243 L10.8334417,38.1073243 L10.8334417,26.1307709 L4.33344167,26.1307709 L4.33344167,38.1073243 Z M10.8334417,21.7756606 L11.916775,21.7756606 L11.916775,23.9532157 L3.25010833,23.9532157 L3.25010833,21.7756606 L4.33344167,21.7756606 L10.8334417,21.7756606 Z M9.61360833,0.559740556 C9.42294167,0.214598062 9.060025,0.000108877761 8.666775,0.000108877761 L6.50010833,0.000108877761 C6.105775,0.000108877761 5.74285833,0.214598062 5.553275,0.559740556 L0.136608333,10.3587388 C-0.010725,10.6254893 -0.039975,10.9423236 0.054275,11.2319384 L2.829775,19.5981054 L2.166775,19.5981054 C1.568775,19.5981054 1.08344167,20.0858777 1.08344167,20.686883 L1.08344167,25.0419933 C1.08344167,25.6429985 1.568775,26.1307709 2.166775,26.1307709 L2.166775,39.1961019 C2.166775,39.7971071 2.65210833,40.2848795 3.25010833,40.2848795 L11.916775,40.2848795 C12.5136917,40.2848795 13.0001083,39.7971071 13.0001083,39.1961019 L13.0001083,26.1307709 C13.597025,26.1307709 14.0834417,25.6429985 14.0834417,25.0419933 L14.0834417,20.686883 C14.0834417,20.0858777 13.597025,19.5981054 13.0001083,19.5981054 L12.336025,19.5981054 L15.111525,11.2319384 C15.2068583,10.9423236 15.1776083,10.6254893 15.030275,10.3587388 L9.61360833,0.559740556 Z" id="Fill-1"></path>
                </g>
                <path d="M3.41645,26.3820273 C2.81953333,26.3820273 2.33311667,25.8931661 2.33311667,25.2932497 C2.33311667,24.6933332 2.81953333,24.2044721 3.41645,24.2044721 C4.01336667,24.2044721 4.49978333,24.6933332 4.49978333,25.2932497 C4.49978333,25.8931661 4.01336667,26.3820273 3.41645,26.3820273 L3.41645,26.3820273 Z M23.9997833,2.42892041 C24.5967,2.42892041 25.0831167,2.91778155 25.0831167,3.51769799 C25.0831167,4.11761444 24.5967,4.60647558 23.9997833,4.60647558 C23.4028667,4.60647558 22.91645,4.11761444 22.91645,3.51769799 C22.91645,2.91778155 23.4028667,2.42892041 23.9997833,2.42892041 L23.9997833,2.42892041 Z M4.49978333,4.60647558 L6.66645,4.60647558 L6.66645,2.42892041 L4.49978333,2.42892041 L4.49978333,4.60647558 Z M41.3331167,4.60647558 L43.4997833,4.60647558 L43.4997833,2.42892041 L41.3331167,2.42892041 L41.3331167,4.60647558 Z M44.5831167,26.3820273 C43.9862,26.3820273 43.4997833,25.8931661 43.4997833,25.2932497 C43.4997833,24.6933332 43.9862,24.2044721 44.5831167,24.2044721 C45.1800333,24.2044721 45.66645,24.6933332 45.66645,25.2932497 C45.66645,25.8931661 45.1800333,26.3820273 44.5831167,26.3820273 L44.5831167,26.3820273 Z M21.0401167,4.85036176 C21.5482,5.98704555 22.6813667,6.78403075 23.9997833,6.78403075 C25.3182,6.78403075 26.4502833,5.98813433 26.95945,4.85253931 C35.6705333,6.19717963 42.5085333,13.4419057 43.38495,22.2642704 C42.1846167,22.7444213 41.3331167,23.9181236 41.3331167,25.2932497 C41.3331167,27.0940878 42.7912833,28.5595824 44.5831167,28.5595824 C46.37495,28.5595824 47.8331167,27.0940878 47.8331167,25.2932497 C47.8331167,23.8331989 46.86895,22.6083241 45.5527,22.1913223 C44.84095,14.5078189 40.0677833,7.87607466 33.3890333,4.60647558 L39.16645,4.60647558 L39.16645,5.69525316 C39.16645,6.29625839 39.6517833,6.78403075 40.2497833,6.78403075 L44.5831167,6.78403075 C45.1811167,6.78403075 45.66645,6.29625839 45.66645,5.69525316 L45.66645,1.34014283 C45.66645,0.739137601 45.1811167,0.251365243 44.5831167,0.251365243 L40.2497833,0.251365243 C39.6517833,0.251365243 39.16645,0.739137601 39.16645,1.34014283 L39.16645,2.42892041 L27.05045,2.42892041 C26.60195,1.16484964 25.4102833,0.251365243 23.9997833,0.251365243 C22.5892833,0.251365243 21.3987,1.16484964 20.9502,2.42892041 L8.83311667,2.42892041 L8.83311667,1.34014283 C8.83311667,0.739137601 8.34778333,0.251365243 7.74978333,0.251365243 L3.41645,0.251365243 C2.81845,0.251365243 2.33311667,0.739137601 2.33311667,1.34014283 L2.33311667,5.69525316 C2.33311667,6.29625839 2.81845,6.78403075 3.41645,6.78403075 L7.74978333,6.78403075 C8.34778333,6.78403075 8.83311667,6.29625839 8.83311667,5.69525316 L8.83311667,4.60647558 L14.5812833,4.60647558 C7.91011667,7.87171955 3.15753333,14.4914873 2.44795,22.1913223 C1.1317,22.6083241 0.16645,23.8331989 0.16645,25.2932497 C0.16645,27.0940878 1.62461667,28.5595824 3.41645,28.5595824 C5.20828333,28.5595824 6.66645,27.0940878 6.66645,25.2932497 C6.66645,23.9181236 5.81495,22.7444213 4.6157,22.2631817 C5.48995,13.4135975 12.3160333,6.19500207 21.0401167,4.85036176 L21.0401167,4.85036176 Z" id="Fill-4" fill="#000000"></path>
                <polygon id="Fill-12" fill="#59C82A" points="22.9166667 47.0686925 25.0833333 47.0686925 25.0833333 42.7135821 22.9166667 42.7135821"></polygon>
            </g>
        </g>
    </g>
</svg>