<?xml version="1.0" encoding="UTF-8"?>
<svg width="36px" height="53px" viewBox="0 0 36 53" version="1.1" xmlns="http://www.w3.org/2000/svg" xmlns:xlink="http://www.w3.org/1999/xlink">
    <title>noun_app development_1910967</title>
    <g id="Page-1" stroke="none" stroke-width="1" fill="none" fill-rule="evenodd">
        <g id="Homepage---Aug-2020" transform="translate(-374.000000, -1203.000000)" fill-rule="nonzero">
            <g id="Group" transform="translate(374.000000, 1203.000000)">
                <path d="M34.4892848,41.3249989 C33.8886752,41.3249989 33.4017848,41.8118892 33.4017848,42.4124989 L33.4017848,46.7624988 C33.4017848,48.5643277 31.9411139,50.0249987 30.1392849,50.0249987 L6.21428555,50.0249987 C4.4124566,50.0249987 2.95178564,48.5643277 2.95178564,46.7624988 L2.95178564,42.4124989 C2.95178564,41.8118892 2.46489531,41.3249989 1.86428566,41.3249989 C1.26367602,41.3249989 0.776785694,41.8118892 0.776785694,42.4124989 L0.776785694,46.7624988 C0.780381095,49.7640565 3.21272783,52.1964032 6.21428555,52.1999986 L30.1392849,52.1999986 C33.1408426,52.1964032 35.5731894,49.7640565 35.5767848,46.7624988 L35.5767848,42.4124989 C35.5767848,41.8118892 35.0898945,41.3249989 34.4892848,41.3249989 Z" id="Path" fill="#FFFFFF"></path>
                <path d="M2.0196428,30.4499992 C2.62025245,30.4499992 3.10714277,29.9631089 3.10714277,29.3624992 L3.10714277,5.43749986 C3.10714277,3.63567091 4.56781374,2.17499994 6.36964269,2.17499994 L30.2946421,2.17499994 C32.096471,2.17499994 33.557142,3.63567091 33.557142,5.43749986 L33.557142,7.6124998 L3.10714277,7.6124998 C2.50653313,7.6124998 2.0196428,8.09939012 2.0196428,8.69999977 C2.0196428,9.30060942 2.50653313,9.78749974 3.10714277,9.78749974 L34.6446419,9.78749974 C35.2452516,9.78749974 35.7321419,9.30060942 35.7321419,8.69999977 L35.7321419,5.43749986 C35.7285465,2.43594213 33.2961998,0.00359540142 30.2946421,0 L6.36964269,0 C3.36808497,0.00359540142 0.935738234,2.43594213 0.932142832,5.43749986 L0.932142832,29.3624992 C0.932142832,29.9631089 1.41903315,30.4499992 2.0196428,30.4499992 Z" id="Path" fill="#FFFFFF"></path>
                <path d="M29.0517849,44.5874988 C29.6523946,44.5874988 30.1392849,44.1006085 30.1392849,43.4999988 C30.1392849,42.8993892 29.6523946,42.4124989 29.0517849,42.4124989 L7.30178552,42.4124989 C6.70117587,42.4124989 6.21428555,42.8993892 6.21428555,43.4999988 C6.21428555,44.1006085 6.70117587,44.5874988 7.30178552,44.5874988 L29.0517849,44.5874988 Z" id="Path" fill="#FFFFFF"></path>
                <g id="Group-9" transform="translate(6.058928, 20.507142)" fill="#59C82A">
                    <path d="M4.46751295,8.94878992 C4.18087903,8.94878992 3.89424511,8.83911757 3.67577414,8.62020957 L0.32705101,5.26449537 C-0.109017003,4.82799045 -0.109017003,4.12101831 0.32705101,3.68451327 L3.67577414,0.328799077 C4.11227917,-0.10857979 4.82056205,-0.109453618 5.25794092,0.327051421 C5.69488287,0.763119434 5.69575681,1.47140231 5.25925177,1.90878118 L2.69877193,4.47450432 L5.25925177,7.04022747 C5.69575681,7.47760645 5.69488287,8.18545241 5.25794092,8.62195745 C5.03947005,8.8399914 4.75370996,8.94878992 4.46751295,8.94878992 Z" id="Path"></path>
                    <path d="M20.064156,8.94878992 C19.7783959,8.94878992 19.492199,8.8399914 19.2741649,8.62195745 C18.8367861,8.18545241 18.8359121,7.47760645 19.2724172,7.04022747 L21.832897,4.47450432 L19.2724172,1.90878118 C18.8359121,1.47140231 18.8367861,0.763119434 19.2741649,0.327051421 C19.7115438,-0.109453618 20.4193898,-0.109016704 20.8558948,0.328362163 L24.2046179,3.68407636 C24.6406859,4.12101831 24.6406859,4.82799045 24.2046179,5.26449537 L20.8558948,8.62020957 C20.6374238,8.83911757 20.3507899,8.94878992 20.064156,8.94878992 Z" id="Path"></path>
                    <path d="M8.89504584,9.18342783 C8.60928575,9.18342783 8.32308874,9.07419229 8.10505479,8.85659525 C7.66767582,8.42009021 7.66680199,7.71180734 8.10330691,7.27442836 L14.8011902,0.562999964 C15.2372582,0.126058011 15.9455412,0.125184183 16.3829201,0.561252308 C16.8202989,0.997757235 16.8211728,1.70604011 16.3846678,2.14341909 L9.68678455,8.85484748 C9.46831369,9.07375537 9.18167977,9.18342783 8.89504584,9.18342783 L8.89504584,9.18342783 Z" id="Path"></path>
                </g>
                <path d="M34.4892848,7.6124998 C33.8886752,7.6124998 33.4017848,8.70493439 33.4017848,10.0525207 L33.4017848,46.6528349 C33.4017848,48.0004213 33.8886752,49.0928558 34.4892848,49.0928558 C35.0898945,49.0928558 35.5767848,48.0004213 35.5767848,46.6528349 L35.5767848,10.0525207 C35.5767848,8.70493439 35.0898945,7.6124998 34.4892848,7.6124998 Z" id="Path" fill="#FFFFFF"></path>
                <path d="M2.0196428,7.45714266 C1.41903315,7.45714266 0.932142832,8.54957725 0.932142832,9.8971636 L0.932142832,46.4974778 C0.932142832,47.8450641 1.41903315,48.9374987 2.0196428,48.9374987 C2.62025245,48.9374987 3.10714277,47.8450641 3.10714277,46.4974778 L3.10714277,9.8971636 C3.10714277,8.54957725 2.62025245,7.45714266 2.0196428,7.45714266 Z" id="Path-Copy" fill="#FFFFFF"></path>
            </g>
        </g>
    </g>
</svg>