<svg xmlns="http://www.w3.org/2000/svg" width="49" height="49" viewBox="0 0 49 49">
    <g fill="none" fill-rule="evenodd">
        <path d="M24.215 30.176c2.613 0 4.732-2.115 4.732-4.723 0-2.609-2.119-4.724-4.732-4.724-2.614 0-4.732 2.115-4.732 4.724 0 2.608 2.118 4.723 4.732 4.723" transform="translate(0 -1)"/>
        <path d="M24.215 18.368c3.92 0 7.098 3.173 7.098 7.085 0 3.911-3.179 7.084-7.098 7.084-3.92 0-7.099-3.173-7.099-7.084 0-3.912 3.179-7.085 7.099-7.085M2.702 25.16c2.202 2.515 11.104 11.88 21.513 11.88 10.423 0 19.314-9.363 21.513-11.88-2.202-2.515-11.105-11.88-21.513-11.88-10.424 0-19.314 9.363-21.513 11.88" transform="translate(0 -1)"/>
        <path fill="#59C82A" d="M24.215 20.729c2.613 0 4.732 2.116 4.732 4.723 0 2.609-2.119 4.724-4.732 4.724-2.614 0-4.732-2.115-4.732-4.724 0-2.607 2.118-4.723 4.732-4.723m0 11.809c3.92 0 7.098-3.173 7.098-7.086 0-3.911-3.179-7.084-7.098-7.084-3.92 0-7.099 3.173-7.099 7.084 0 3.913 3.179 7.086 7.099 7.086" transform="translate(0 -1)"/>
        <path fill="#FFF" d="M2.805 14.27l10.5-10.48 1.573 1.57-2.275 2.27 1.403 1.4 2.274-2.27 1.573 1.57-2.274 2.27L16.98 12l2.275-2.27 1.826 1.822c-5.61.867-10.55 3.895-14.172 6.815L2.805 14.27zm21.41-.99c10.408 0 19.31 9.365 21.513 11.88-2.2 2.516-11.09 11.88-21.513 11.88-10.409 0-19.311-9.366-21.513-11.88 2.199-2.517 11.09-11.88 21.513-11.88zm12.894-5.53l4.548 4.54-3.584 3.578c-1.822-1.178-3.846-2.257-6.02-3.071l5.056-5.047zm3.967-3.96l4.549 4.54-2.565 2.56-4.549-4.54 2.565-2.56zm2.976 30.69l1.573 1.57-10.5 10.48-7.777-7.762c5.608-.867 10.55-3.894 14.171-6.815l1.13 1.127-2.274 2.27 1.402 1.4 2.275-2.27zM11.32 42.57l-4.549-4.54 3.585-3.578c1.822 1.177 3.845 2.256 6.02 3.07l-5.056 5.048zm-7.359 2.805l1.84-5.513 3.683 3.675-5.523 1.838zM.625 24.545l-.487.615.487.615c.23.29 3.288 4.084 8.068 7.538l-4.19 4.182-3.677 11.01 11.03-3.67 6.635-6.622c1.828.507 3.744.807 5.724.807.19 0 .376-.012.563-.017L35.125 49.33 48.43 36.05l-5.391-5.38c2.851-2.517 4.594-4.68 4.766-4.895l.487-.615-.487-.615c-.23-.29-3.288-4.085-8.068-7.539L48.43 8.33 41.076.99 29.938 12.107c-1.827-.507-3.743-.807-5.723-.807-.19 0-.376.012-.564.017L13.305.99 0 14.27l5.39 5.38C2.538 22.167.797 24.33.625 24.545z" transform="translate(0 -1)"/>
    </g>
</svg>
