<svg xmlns="http://www.w3.org/2000/svg" width="82" height="82" viewBox="0 0 82 82">
    <g fill="none" fill-rule="evenodd">
        <path fill="#59C82A" fill-rule="nonzero" d="M50.972 46.335c1.657.83 3.055 2.137 4.194 3.921 1.14 1.785 1.709 3.9 1.709 6.349 0 4.15-1.553 7.386-4.66 9.71-3.107 2.323-7.021 3.485-11.744 3.485-3.065 0-5.985-.643-8.76-1.93-2.776-1.286-5.013-2.966-6.711-5.041l6.213-6.286c2.527 3.195 5.738 4.792 9.631 4.792 2.03 0 3.677-.435 4.94-1.307 1.263-.871 1.895-2.095 1.895-3.672 0-3.402-2.755-5.104-8.264-5.104h-3.604v-8.589h2.92c5.22 0 7.83-1.639 7.83-4.917 0-1.286-.518-2.355-1.554-3.205-1.035-.851-2.423-1.276-4.163-1.276-3.604 0-6.524 1.41-8.76 4.232l-6.028-6.037c3.935-4.44 8.782-6.66 14.54-6.66 4.225 0 7.818 1.017 10.78 3.05 2.962 2.033 4.443 5.041 4.443 9.025 0 4.15-1.616 7.303-4.847 9.46z"/>
        <path fill="#979797" d="M9.951 4.776a2.389 2.389 0 1 1 0 4.778 2.389 2.389 0 0 1 0-4.778M17.799 4.776a2.389 2.389 0 1 1 0 4.778 2.389 2.389 0 0 1 0-4.778M25.645 4.776a2.389 2.389 0 1 1 0 4.778 2.389 2.389 0 0 1 0-4.778"/>
        <path fill="#979797" d="M79.611 11.942H2.39V5.175A2.79 2.79 0 0 1 5.175 2.39h71.65a2.79 2.79 0 0 1 2.786 2.786v6.767zm0 64.883a2.79 2.79 0 0 1-2.786 2.786H5.175a2.79 2.79 0 0 1-2.786-2.786V14.33H79.61v62.494zM76.825 0H5.175A5.18 5.18 0 0 0 0 5.175v71.65A5.18 5.18 0 0 0 5.175 82h71.65A5.18 5.18 0 0 0 82 76.825V5.175A5.18 5.18 0 0 0 76.825 0z"/>
        <path fill="#979797" d="M72.844 5.97H44.981a1.195 1.195 0 0 0 0 2.39h27.863a1.195 1.195 0 0 0 0-2.39"/>
    </g>
</svg>
