<svg xmlns="http://www.w3.org/2000/svg" width="58" height="39" viewBox="0 0 58 39">
    <g fill="none" fill-rule="evenodd">
        <path fill="#FFF" d="M51.287 34.875H33.749c-.136.755-.808 1.345-1.648 1.345h-7.005c-.84 0-1.511-.59-1.648-1.345H5.92V3.06c0-.292.245-.538.537-.538H50.75c.29 0 .537.246.537.538v31.815h-.001zm5.91 0H53.8V2.331C53.8 1.046 52.758 0 51.476 0H5.73C4.448 0 3.406 1.046 3.406 2.331v32.544H0v1.345h.005l2.86 2.533H54.34L57.2 36.22h-.005v-1.345h.001z"/>
        <path fill="#59C82A" d="M35.128 24.893L28.708 24.893 28.349 24.893 28.349 25.252 28.349 26.26 28.349 26.619 28.708 26.619 35.128 26.619 35.486 26.619 35.486 26.26 35.486 25.252 35.486 24.893zM25.285 12.401L19.637 15.284 19.441 15.384 19.441 15.604 19.441 16.379 19.441 16.6 19.637 16.7 25.285 19.571 25.805 19.835 25.805 19.25 25.805 18.424 25.805 18.203 25.609 18.104 21.43 15.986 25.609 13.867 25.805 13.768 25.805 13.547 25.805 12.721 25.805 12.135zM31.918 12.135L30.872 12.135 30.643 12.135 30.547 12.344 24.275 26.11 24.043 26.619 24.601 26.619 25.646 26.619 25.877 26.619 25.972 26.408 32.244 12.643 32.475 12.135z"/>
        <path stroke="#59C82A" stroke-width="2.049" d="M40.123 19.377c0 7.013-5.668 12.699-12.66 12.699-6.99 0-12.659-5.686-12.659-12.7 0-7.013 5.668-12.699 12.66-12.699 6.991 0 12.659 5.686 12.659 12.7z"/>
    </g>
</svg>
