<svg xmlns="http://www.w3.org/2000/svg" width="92" height="97" viewBox="0 0 92 97">
    <g fill="none" fill-rule="evenodd">
        <g stroke="#979797">
            <path stroke-width="2" d="M5.5 5h75v75h-75z"/>
            <path fill="#FFF" stroke-linecap="round" stroke-linejoin="round" stroke-width="2" d="M1 10.161h9.161V1H1zM1 47.161h9.161V38H1zM1 84.161h9.161V75H1zM75.5 10.161h9.161V1H75.5zM75.5 47.161h9.161V38H75.5zM75.5 84.161h9.161V75H75.5zM38.5 10.161h9.161V1H38.5zM38.5 84.161h9.161V75H38.5z"/>
            <path fill="#979797" stroke-linecap="round" stroke-linejoin="round" d="M80.733 80L77 95.867l6.533-4.678L91 92.479z"/>
        </g>
        <path fill="#59C82A" fill-rule="nonzero" d="M37.744 56.341h20.92V65H27v-1.454c0-5.393 1.074-9.849 3.223-13.367 2.15-3.518 5.9-6.626 11.25-9.322l2.465-1.201c2.191-1.096 3.655-2.149 4.393-3.16.737-1.011 1.106-2.086 1.106-3.224 0-1.348-.548-2.464-1.643-3.35-1.096-.884-2.592-1.326-4.488-1.326-4.466 0-7.879 2.359-10.239 7.078L27 29.607c1.348-2.823 3.466-5.13 6.352-6.92C36.238 20.894 39.409 20 42.864 20c4.382 0 8.142 1.159 11.281 3.476 3.14 2.318 4.709 5.54 4.709 9.67 0 3.244-.895 5.952-2.686 8.122-1.79 2.17-4.414 4.14-7.869 5.909l-3.855 1.96c-2.065 1.053-3.624 2.106-4.677 3.16-1.054 1.053-1.728 2.401-2.023 4.044z"/>
    </g>
</svg>
