<svg xmlns="http://www.w3.org/2000/svg" width="80" height="80" viewBox="0 0 80 80">
    <g fill="none" fill-rule="evenodd">
        <path fill="#D7D7D7" d="M24.722 79.728c-9.072 0-14.29 0-19.506-5.198C0 69.33 0 64.132 0 55.09V24.638c0-9.042 0-14.241 5.216-19.44C10.433 0 15.65 0 24.722 0h30.556c9.073 0 14.29 0 19.505 5.198C80 10.397 80 15.596 80 24.638V55.09c0 9.042 0 14.241-5.217 19.44-5.216 5.198-10.432 5.198-19.505 5.198H24.722z"/>
        <g fill-rule="nonzero">
            <path fill="#000" d="M59.748 55.288h-6.366V65H43.67v-9.712H23v-8.006L42.686 19h10.696v27.692h6.366v8.596zm-26.642-8.596H43.67V31.27l-10.564 15.42z"/>
            <path fill="#59C82A" d="M55.748 51.288h-6.366V61H39.67v-9.712H19v-8.006L38.686 15h10.696v27.692h6.366v8.596zm-26.642-8.596H39.67V27.27l-10.564 15.42z"/>
        </g>
    </g>
</svg>
