<?xml version="1.0" encoding="UTF-8"?>
<svg width="62px" height="48px" viewBox="0 0 62 48" version="1.1" xmlns="http://www.w3.org/2000/svg" xmlns:xlink="http://www.w3.org/1999/xlink">
    <!-- Generator: Sketch 56.2 (81672) - https://sketch.com -->
    <title>code</title>
    <desc>Created with Sketch.</desc>
    <g id="Page-1" stroke="none" stroke-width="1" fill="none" fill-rule="evenodd">
        <g id="Development" transform="translate(-170.000000, -675.000000)" fill-rule="nonzero">
            <g id="code" transform="translate(170.000000, 675.000000)">
                <path d="M57.84,0 L3.6,0 C1.61531256,0 0,1.61531256 0,3.6 L0,44.4 C0,46.3846874 1.61531256,48 3.6,48 L57.84,48 C59.8246874,48 61.44,46.3846874 61.44,44.4 L61.44,3.6 C61.44,1.61531256 59.8246874,0 57.84,0 Z M59.04,44.4 C59.04,45.0614063 58.5014063,45.6 57.84,45.6 L3.6,45.6 C2.93859372,45.6 2.4,45.0614063 2.4,44.4 L2.4,10.3223437 L59.04,10.3223437 L59.04,44.4 Z M2.4,7.92234372 L2.4,3.6 C2.4,2.93859372 2.93859372,2.4 3.6,2.4 L57.84,2.4 C58.5014063,2.4 59.04,2.93859372 59.04,3.6 L59.04,7.92234372 L2.4,7.92234372 Z" id="Shape" fill="#000000"></path>
                <path d="M20.480625,6.435 L10.9003126,6.435 C10.2375,6.435 9.70031256,5.89781256 9.70031256,5.235 C9.70031256,4.57218744 10.2375,4.035 10.9003126,4.035 L20.480625,4.035 C21.1434374,4.035 21.680625,4.57218744 21.680625,5.235 C21.680625,5.89781256 21.1434374,6.435 20.480625,6.435 Z" id="Path" fill="#000000"></path>
                <path d="M6.1125,6.435 C5.44968744,6.435 4.91203128,5.89781256 4.91203128,5.235 C4.91203128,4.57218744 5.44828128,4.035 6.11109372,4.035 L6.1125,4.035 C6.77531256,4.035 7.3125,4.57218744 7.3125,5.235 C7.3125,5.89781256 6.77531256,6.435 6.1125,6.435 Z" id="Path" fill="#000000"></path>
                <path d="M53.1721874,42.3515626 L8.14828128,42.3515626 C6.825,42.3515626 5.74828128,41.2753126 5.74828128,39.9515626 L5.74828128,15.9515626 C5.74828128,14.6282813 6.825,13.5515626 8.14828128,13.5515626 L53.1721874,13.5515626 C54.4954687,13.5515626 55.5721874,14.6282813 55.5721874,15.9515626 L55.5721874,39.9515626 C55.5721874,41.2753126 54.4954687,42.3515626 53.1721874,42.3515626 Z M8.14828128,15.9515626 L8.14828128,39.9515626 L53.1721874,39.9515626 L53.1735937,39.9515626 L53.1721874,15.9515626 L8.14828128,15.9515626 Z" id="Shape" fill="#000000"></path>
                <path d="M22.2942187,32.6259374 C21.9867187,32.6259374 21.6792187,32.5082813 21.4448437,32.2734374 L17.8523437,28.6734374 C17.3845313,28.2051563 17.3845313,27.4467187 17.8523437,26.9784374 L21.4448437,23.3784374 C21.913125,22.9092187 22.6729687,22.9082813 23.1421874,23.3765626 C23.6109374,23.844375 23.611875,24.6042187 23.1435937,25.0734374 L20.3967187,27.8259374 L23.1435937,30.5784374 C23.611875,31.0476563 23.6109374,31.8070313 23.1421874,32.2753126 C22.9078126,32.5092187 22.60125,32.6259374 22.2942187,32.6259374 Z" id="Path" fill="#59C82A"></path>
                <path d="M39.02625,32.6259374 C38.7196874,32.6259374 38.4126563,32.5092187 38.17875,32.2753126 C37.7095313,31.8070313 37.7085937,31.0476563 38.176875,30.5784374 L40.92375,27.8259374 L38.176875,25.0734374 C37.7085937,24.6042187 37.7095313,23.844375 38.17875,23.3765626 C38.6479687,22.9082813 39.4073437,22.90875 39.875625,23.3779687 L43.468125,26.9779687 C43.9359374,27.4467187 43.9359374,28.2051563 43.468125,28.6734374 L39.875625,32.2734374 C39.64125,32.5082813 39.33375,32.6259374 39.02625,32.6259374 Z" id="Path" fill="#59C82A"></path>
                <path d="M27.0440626,32.8776563 C26.7375,32.8776563 26.4304687,32.7604687 26.1965626,32.5270313 C25.7273437,32.05875 25.7264063,31.2989063 26.1946874,30.8296874 L33.3801563,23.6296874 C33.8479687,23.1609374 34.6078126,23.16 35.0770313,23.6278126 C35.54625,24.0960937 35.5471874,24.8559374 35.0789063,25.3251563 L27.8934374,32.5251563 C27.6590626,32.76 27.3515626,32.8776563 27.0440626,32.8776563 L27.0440626,32.8776563 Z" id="Path" fill="#59C82A"></path>
            </g>
        </g>
    </g>
</svg>